<svg version="1.2" xmlns="http://www.w3.org/2000/svg" viewBox="0 0 774 79" width="774" height="79">
	<title>UNBND_RGB_logo abbreviato_bianco</title>
	<style>
		.s0 { fill: #ffffff } 
		.s1 { fill: none } 
	</style>
	<g id="Livello_1-2">
		<g>
			<g>
				<path class="s0" d="m132.3 37.7v-24.7h33.5v25.2c0 8.5 5.9 13.3 15 13.3 9.1 0 15.1-4.8 15.1-13.3v-25.2h32.7v24.6c0 21.6-17.1 34-48.4 34-31.4 0-47.9-12.4-47.9-33.9z"/>
				<path class="s0" d="m236.7 13h32.7l17 14.2 16.4 13.7v-14.1l0.1-13.8h27.5v56.7h-32.7l-17-14.2-16.4-13.7v14.2l-0.1 13.7h-27.5z"/>
				<path class="s0" d="m338.9 13h69.8c15.7 0 24.5 5.8 24.5 15.1 0 6-3.7 10.6-10.3 13 8.4 1.9 12.6 6.5 12.6 13.3 0 9.6-9 15.3-25 15.3h-71.6v-56.7zm32.8 15.6v7.1h24.3c3.4 0 5.4-1.3 5.4-3.6 0-2.4-2-3.5-5.4-3.5 0 0-24.3 0-24.3 0zm0 19.5v6.9h25.6c3.4 0 5.3-1.2 5.3-3.4 0-2.1-1.9-3.5-5.3-3.5z"/>
				<path class="s0" d="m441.7 13h32.7l17 14.2 16.4 13.7v-14.1l0.1-13.8h27.6v56.7h-32.8l-17-14.2-16.4-13.7v14.2l-0.1 13.7h-27.5z"/>
				<path class="s0" d="m543.9 13h50.2c27.8 0 47.3 11.6 47.3 28.3 0 16.8-19.6 28.4-47.2 28.4h-50.3zm33.5 18.7v19.8h13.2c10.2 0 16.3-3.7 16.3-9.9 0-6.3-6.1-9.9-16.3-9.9z"/>
			</g>
			<path class="s0" d="m706.9 12.8c11.2 4.6 19.1 15.7 19.1 28.5 0 12.9-8 24.1-19.4 28.7h40.8c8.1-8 13-17.9 13-28.7 0-10.7-4.8-20.6-12.9-28.5 0 0-40.6 0-40.6 0z"/>
			<path class="s0" d="m47.9 41.3c0-12.8 7.9-23.9 19.1-28.5h-40.6c-8.1 7.9-12.9 17.8-12.9 28.5 0 10.8 4.8 20.7 13 28.7h40.7c-11.3-4.6-19.3-15.7-19.3-28.7z"/>
			<path fill-rule="evenodd" class="s1" d="m-43-43h859.7v168.7h-859.7z"/>
		</g>
	</g>
</svg>