<?xml version="1.0" encoding="UTF-8"?>
<svg id="Livello_2" data-name="Livello 2" xmlns="http://www.w3.org/2000/svg" viewBox="0 0 859.74 216.94">
  <defs>
    <style>
      .cls-1 {
        fill: none;
      }
    </style>
  </defs>
  <g id="Livello_1-2" data-name="Livello 1">
    <g>
      <g>
        <g>
          <path d="M56.36,81.09v-24.73h33.48v25.21c0,8.51,5.92,13.3,15,13.3s15.08-4.78,15.08-13.3v-25.21h32.67v24.65c0,21.56-17.02,33.97-48.4,33.97s-47.83-12.4-47.83-33.89Z"/>
          <path d="M160.69,56.36h32.75l16.94,14.27,16.46,13.62v-14.11l.08-13.78h27.56v56.75h-32.75l-17.02-14.27-16.38-13.62v14.19l-.08,13.7h-27.56v-56.75Z"/>
          <path d="M262.91,56.36h69.8c15.73,0,24.48,5.84,24.48,15.16,0,6-3.65,10.54-10.3,12.97,8.43,1.95,12.65,6.49,12.65,13.29,0,9.57-9,15.32-24.97,15.32h-71.67v-56.75ZM295.75,72.01v7.05h24.32c3.4,0,5.35-1.22,5.35-3.57s-1.95-3.49-5.35-3.49h-24.32ZM295.75,91.54v6.89h25.62c3.4,0,5.27-1.22,5.27-3.4s-1.87-3.49-5.27-3.49h-25.62Z"/>
          <path d="M499.3,81.09v-24.73h33.48v25.21c0,8.51,5.92,13.3,15,13.3s15.08-4.78,15.08-13.3v-25.21h32.67v24.65c0,21.56-17.02,33.97-48.4,33.97s-47.83-12.4-47.83-33.89Z"/>
          <path d="M603.63,56.36h32.75l16.94,14.27,16.46,13.62v-14.11l.08-13.78h27.56v56.75h-32.75l-17.02-14.27-16.38-13.62v14.19l-.08,13.7h-27.56v-56.75Z"/>
          <path d="M705.85,56.36h50.26c27.73,0,47.26,11.59,47.26,28.38s-19.62,28.37-47.18,28.37h-50.34v-56.75ZM739.33,75.01v19.78h13.21c10.21,0,16.29-3.65,16.29-9.89s-6.08-9.89-16.29-9.89h-13.21Z"/>
        </g>
        <g>
          <path d="M439.94,56.84c10.94,4.53,18.64,15.31,18.64,27.9s-7.81,23.51-18.87,27.99h39.79c7.96-7.8,12.67-17.49,12.67-27.99s-4.68-20.11-12.59-27.9h-39.65Z"/>
          <path d="M398.21,84.73c0-12.58,7.7-23.36,18.64-27.9h-39.65c-7.91,7.79-12.59,17.44-12.59,27.9s4.71,20.18,12.67,27.99h39.79c-11.06-4.48-18.87-15.32-18.87-27.99Z"/>
        </g>
      </g>
      <g>
        <path d="M356.96,163.83h6.66c.4,3.04,2.12,4.43,5.34,4.43s4.47-1.1,4.47-2.45c0-2.01-2.56-2.75-5.64-3.51-4.72-1.13-10.65-2.34-10.65-8.13,0-4.58,4.03-7.69,10.62-7.69,6.92,0,11.35,3.19,12.04,8.97h-6.41c-.48-2.67-2.42-4.17-5.42-4.17s-4.03.99-4.03,2.31c0,1.98,2.71,2.71,5.93,3.51,4.65,1.13,10.32,2.45,10.32,8.05,0,4.69-4.17,7.91-11.05,7.91s-11.49-3.26-12.19-9.22Z"/>
        <path d="M391.04,152h-8.75v-5.05h24.31v5.05h-8.75v20.57h-6.81v-20.57Z"/>
        <path d="M409.77,162.87v-15.92h6.81v16.33c0,2.89,2.01,4.5,4.76,4.5s4.83-1.61,4.83-4.47v-16.36h6.62v16c0,6.44-4.5,10.14-11.57,10.14s-11.46-3.73-11.46-10.21Z"/>
        <path d="M438.1,146.95h10.58c7.94,0,13.21,4.65,13.21,12.85s-5.34,12.78-13.36,12.78h-10.43v-25.62ZM444.91,152.08v15.45h3.44c4.17,0,6.59-2.45,6.59-7.69s-2.42-7.76-6.59-7.76h-3.44Z"/>
        <path d="M466.17,146.95h6.77v25.62h-6.77v-25.62Z"/>
        <path d="M477.23,159.76c0-8.53,5.09-13.36,12.78-13.36s12.78,4.83,12.78,13.36-5.09,13.36-12.78,13.36-12.78-4.83-12.78-13.36ZM495.82,159.76c0-5.49-2.31-8.13-5.82-8.13s-5.82,2.64-5.82,8.13,2.27,8.13,5.82,8.13,5.82-2.64,5.82-8.13Z"/>
      </g>
      <rect class="cls-1" width="859.74" height="216.94"/>
    </g>
  </g>
</svg>