<?xml version="1.0" encoding="UTF-8"?>
<svg id="Livello_2" data-name="Livello 2" xmlns="http://www.w3.org/2000/svg" viewBox="0 0 859.74 168.69">
  <defs>
    <style>
      .cls-1 {
        fill: none;
      }

      .cls-2 {
        fill: #fff;
      }
    </style>
  </defs>
  <g id="Livello_1-2" data-name="Livello 1">
    <g>
      <g>
        <path class="cls-2" d="M175.33,80.7v-24.73h33.48v25.21c0,8.51,5.92,13.3,15,13.3s15.08-4.78,15.08-13.3v-25.21h32.67v24.65c0,21.56-17.02,33.97-48.4,33.97s-47.83-12.4-47.83-33.89Z"/>
        <path class="cls-2" d="M279.66,55.97h32.75l16.94,14.27,16.46,13.62v-14.11l.08-13.78h27.56v56.75h-32.75l-17.02-14.27-16.38-13.62v14.19l-.08,13.7h-27.56v-56.75Z"/>
        <path class="cls-2" d="M381.88,55.97h69.8c15.73,0,24.48,5.84,24.48,15.16,0,6-3.65,10.54-10.3,12.97,8.43,1.95,12.65,6.49,12.65,13.29,0,9.57-9,15.32-24.97,15.32h-71.67v-56.75ZM414.72,71.62v7.05h24.32c3.4,0,5.35-1.22,5.35-3.57s-1.95-3.49-5.35-3.49h-24.32ZM414.72,91.16v6.89h25.62c3.4,0,5.27-1.22,5.27-3.4s-1.87-3.49-5.27-3.49h-25.62Z"/>
        <path class="cls-2" d="M484.66,55.97h32.75l16.94,14.27,16.46,13.62v-14.11l.08-13.78h27.56v56.75h-32.75l-17.02-14.27-16.38-13.62v14.19l-.08,13.7h-27.56v-56.75Z"/>
        <path class="cls-2" d="M586.88,55.97h50.26c27.73,0,47.26,11.59,47.26,28.38s-19.62,28.37-47.18,28.37h-50.34v-56.75ZM620.36,74.62v19.78h13.21c10.21,0,16.29-3.65,16.29-9.89s-6.08-9.89-16.29-9.89h-13.21Z"/>
      </g>
      <path class="cls-2" d="M749.86,55.76c11.21,4.65,19.1,15.69,19.1,28.59s-8,24.08-19.33,28.67h40.76c8.15-8,12.98-17.92,12.98-28.67s-4.8-20.6-12.9-28.59h-40.62Z"/>
      <path class="cls-2" d="M90.89,84.34c0-12.89,7.89-23.94,19.1-28.59h-40.62c-8.1,7.98-12.9,17.87-12.9,28.59s4.83,20.68,12.98,28.67h40.76c-11.33-4.59-19.33-15.7-19.33-28.67Z"/>
      <rect class="cls-1" width="859.74" height="168.69"/>
    </g>
  </g>
</svg>