<?xml version="1.0" encoding="UTF-8"?>
<svg id="Livello_2" data-name="Livello 2" xmlns="http://www.w3.org/2000/svg" viewBox="0 0 859.74 168.69">
  <defs>
    <style>
      .cls-1 {
        fill: none;
      }
    </style>
  </defs>
  <g id="Livello_1-2" data-name="Livello 1">
    <g>
      <g>
        <g>
          <path d="M56.36,80.7v-24.73h33.48v25.21c0,8.51,5.92,13.3,15,13.3s15.08-4.78,15.08-13.3v-25.21h32.67v24.65c0,21.56-17.02,33.97-48.4,33.97s-47.83-12.4-47.83-33.89Z"/>
          <path d="M160.69,55.97h32.75l16.94,14.27,16.46,13.62v-14.11l.08-13.78h27.56v56.75h-32.75l-17.02-14.27-16.38-13.62v14.19l-.08,13.7h-27.56v-56.75Z"/>
          <path d="M262.91,55.97h69.8c15.73,0,24.48,5.84,24.48,15.16,0,6-3.65,10.54-10.3,12.97,8.43,1.95,12.65,6.49,12.65,13.29,0,9.57-9,15.32-24.97,15.32h-71.67v-56.75ZM295.75,71.62v7.05h24.32c3.4,0,5.35-1.22,5.35-3.57s-1.95-3.49-5.35-3.49h-24.32ZM295.75,91.16v6.89h25.62c3.4,0,5.27-1.22,5.27-3.4s-1.87-3.49-5.27-3.49h-25.62Z"/>
          <path d="M499.3,80.7v-24.73h33.48v25.21c0,8.51,5.92,13.3,15,13.3s15.08-4.78,15.08-13.3v-25.21h32.67v24.65c0,21.56-17.02,33.97-48.4,33.97s-47.83-12.4-47.83-33.89Z"/>
          <path d="M603.63,55.97h32.75l16.94,14.27,16.46,13.62v-14.11l.08-13.78h27.56v56.75h-32.75l-17.02-14.27-16.38-13.62v14.19l-.08,13.7h-27.56v-56.75Z"/>
          <path d="M705.85,55.97h50.26c27.73,0,47.26,11.59,47.26,28.38s-19.62,28.37-47.18,28.37h-50.34v-56.75ZM739.33,74.62v19.78h13.21c10.21,0,16.29-3.65,16.29-9.89s-6.08-9.89-16.29-9.89h-13.21Z"/>
        </g>
        <g>
          <path d="M439.94,56.45c10.94,4.53,18.64,15.31,18.64,27.9s-7.81,23.51-18.87,27.99h39.79c7.96-7.8,12.67-17.49,12.67-27.99s-4.68-20.11-12.59-27.9h-39.65Z"/>
          <path d="M398.21,84.35c0-12.58,7.7-23.36,18.64-27.9h-39.65c-7.91,7.79-12.59,17.44-12.59,27.9s4.71,20.18,12.67,27.99h39.79c-11.06-4.48-18.87-15.32-18.87-27.99Z"/>
        </g>
      </g>
      <rect class="cls-1" width="859.74" height="168.69"/>
    </g>
  </g>
</svg>